<?xml version="1.0" encoding="UTF-8"?>
<svg id="Lag_1" xmlns="http://www.w3.org/2000/svg" version="1.1" viewBox="0 0 2834.65 2834.65">
  <!-- Generator: Adobe Illustrator 30.1.0, SVG Export Plug-In . SVG Version: 2.1.1 Build 136)  -->
  <defs>
    <style>
      .st0 {
        fill: #68afd3;
        stroke: #010101;
        stroke-miterlimit: 10;
        stroke-width: 9px;
      }
    </style>
  </defs>
  <g>
    <path class="st0" d="M1554.22,1805.11c-2.16-12.51,30.91-18.15,41.45-60.61,16.53-66.58,10.96-126.84-49.86-170.83-30.72-22.22-43.51-56.99-48.01-94.3-3.27-27.16-20.97-47.61-28.46-72.77-18.53-62.29-25.77-124.84-8.74-188.77.75-2.82.19-6.01.24-9.02,9.19-36.91,23.51-69.34,56.31-92.12,22.08-15.34,47.15-25.13,67.67-43.75,14.64-13.28,33.18-25.04,55.64-18.98,44.03-6,87.91-9.32,132.52-4.44,88.16,9.63,165.09,42.63,223.69,112.69,21.63,25.86,44.95,58.76,37.36,92.09-14.94,65.63,3.85,132.51-14.09,197.29-6.7,24.18,2.28,49.45,3.81,74.23,2.17,34.97-2.61,67.29-23.76,96.15-15.64,21.34-25.27,46.53-38.3,69.58-15.06,26.63-33.85,41.22-63.1,38.92-13.48-1.06-17.25,3.39-19.06,16.42-2.9,20.84-3.75,32.95.66,42.62,0,0,3.24,6.7,34.37,29.24-282.02,19.63-356.89,6.32-360.34-13.64Z"/>
    <path class="st0" d="M1633.08,1435.83c-2.38,9.57-3.57,18.94,7.63,30.86-1.92-48.95,25.09-80.17,49.89-112.79,14.08-18.52,23.49-39.59,25.36-63.57,4.98-5.46-4.68-17.95,8.73-19.37,7.53-2.65,20.5,10.38,22.47-8.29,2.57-1.68,5.16-1.73,7.78-.13,15.4,11.07,20.51-.37,25.39-12.34-2.31-6.44,1.99-7.43,6.42-8.33,3.79.22,6.81,2.07,9.34,4.9-1.1-3.31-3.17-5.95-5.51-8.39-8.42-8.75-21.57-13.03-24.23-27.25.25-2.2,1.34-3.81,3.23-4.85,21.24.88,34.02,16.99,49.19,29.01,1.31-4.43-3.13-10.18,2.72-13.63.41-.24,1.21-.21,1.61.06.58.38.95,1.09,1.4,1.66,2.27,4.98,6.03,8.43,11.22,9.24,21.49,3.33,33.63,17.36,40.7,44.56,3.81-20.23-2.64-30.61-7.75-41.32-.85-4.61.5-6.95,5.43-5.62,8.05,1.04,13.47,5.51,14.93,13.75,1.96,11.07,9.87,17.73,18.65,19.29,11.47,2.05,14.06-10.43,18.95-18.29,12.96,5.53.55,19.49,8.36,26.73,14.44-11.61,12.48-28.22,11.43-43.82-.68-10.02-4.45-19.82-7.93-34.26,12.41,9.29,11.51,19.82,14.04,29,5.34,19.38,2.13,43.41,25.79,53.44,3-2.38,5.87-2.4,8.57.52.58,1.38.8,3.56,1.79,4.04,35.71,17.32,16.62,51.36,22.21,77.78,1.51,7.14-3.41,8.44-9.49,7.83-5.8-.58-11.7-.16-17.55-.12-10.05.06-22.24,2.41-21.7,13.51.53,10.87,13.18,5.05,20.15,5.28,30.41.99,32.86,6.06,23.23,36.68-6.47,20.56-5.79,42.76-2.48,64.22,8.67,56.22,4.06,109.7-28.91,157.66-7.98,11.61-8.86,26.26-17.74,37.91-27.45,36.03-64.39,35.61-101.83,28.2-33.55-6.64-66.4-17.24-99.37-26.76-50.61-14.6-85.38-50.44-114.78-93-7.31-10.58-13.36-17.07-28.45-11.2-15.41,5.99-30.72-.34-44.76-10.95-29.89-22.59-49.14-50.19-50.87-89.88-.78-17.93,6.82-29.23,20.47-36.23,15.11-7.75,31.4-13.44,47.24-.3,13.52,11.22,27.15,22.29,41.59,34.12,6.13-12.99-5.83-29.19,7.93-39.34l-.49-.22Z"/>
    <path class="st0" d="M1595.84,1596.8c30.4-20.76,39.44.77,51.17,24.77,18,36.83,51.84,56,87.15,71.66,35.61,15.79,73.46,24.36,111.23,31.86,7.27,1.44,11.41,3.44,13.67,6.63,3.08,4.35,2.75,9.57,2.25,14.94-2.65,28.61-6.79,35.15-3.23,43.73,4.28,10.33,14.27,10.47,13.81,14.24-1.05,8.69-53.91,7.56-161.59,7.6-21.03.01-42.04-1.27-63.06-1.72-46.41-1.01-69.28-.93-70.91-8.25-.93-4.19,5.51-8.82,9.62-12.04,37.15-29.1,50.29-119.7,19.4-178.22-3.56-6.73-7.09-11.9-9.51-15.2Z"/>
    <path class="st0" d="M1768.07,1208.18c11.47,18.47,36.52,26.06,40.13,53.49-10.91-2-13.17-12.11-19.65-16.69-29.3-23.99-63.01-40.72-94.32-61.37-18.28-12.06-31.16-30.93-45.25-47.94l.49.59c-3.9-7.88-11.81-10.83-18.25-15.51-3.07-2.24-6.43-4.03-5.4-8.45,1.02-4.36,4.48-5.61,8.45-4.74,19.47,4.27,40.74,4.23,54.03,23.58,1.55.9,3.1,1.81,4.66,2.71,36.09,22.76,70.3,48.86,109.77,65.6,10.38,4.96,15.2,15.3,21.78,23.93-3.47-.02-2.73,2.29-2.03,4.23,2.31,6.44,15.04,11.33,8.53,17.44-7.58,7.11-15.07-3.49-20.9-9.13-12.47-12.05-25.02-23.63-42.46-27.3-9.75-7.82-20.33-14.37-26.94-18.76,6.79,4.19,16.73,11.81,27.36,18.32Z"/>
    <path class="st0" d="M1754.28,1116.97c14.67,20.68,39.86,21.1,59.62,31.95,22.45,12.33,45.82,22.71,66.5,38.37,21.78,16.5,24.36,39.76,24.62,65.88-6.71-2.95-5.89-7.35-6.07-10.68-2.2-41.71-32.79-56.11-63.19-71.57-31.81-16.18-65.05-28.82-94.97-49.9-16.28-11.47-40.01-12.15-60.64-16.35-8.57-1.75-16.79-3.36-30.24-11.18,39.78,5.95,73.65,8.29,104.85,23.99l-.48-.51Z"/>
    <path class="st0" d="M1948.98,1183.31c-16.16-9.08-19.28-25.93-31.39-35.63-18.21-14.57-40.79-11.95-60.55-20.17-74.29-30.91-152.94-40.3-231.96-47.76,39.23-7.52,77.21,3.81,115.7,7.65,47.61,4.74,92.14,20.72,136.23,38.43,9.05,3.64,19.37,1.29,27.19,4.6,21.95,9.27,34.76,28.47,44.78,52.88Z"/>
    <path class="st0" d="M1565.71,1127.16c-5.74,8-5.59,7.95-1.59,20.6,7.42,23.45,20.6,44.97,23.97,69.66,8.3,60.87,19.72,121.46,17.69,183.41-.61,18.68-.36,37.26,11.59,53.57-8.06-6.06-16.23-11.29-19.6-21.19l-.44.64c4.21-28.71,4.15-57.61.27-86.16-6.34-46.67-6.94-94.3-19.18-139.95-6.16-22.98-16.66-44.69-23.84-67.43-2.53-8-8.18-20.74,7.88-22.37,12.25-1.24-.47,7.1,2.84,9.67l.41-.45Z"/>
    <path class="st0" d="M1508.44,1185.46c-1.28,71.53-.84,143.09,6.44,214.23,1.6,15.62,7.09,30.35.27,51.22-10.62-53.44-11.26-102.71-14.11-151.67-1.75-30.05-1.19-60.24-1.55-90.36-.1-8.95-1.33-18.59,9.34-22.97l-.39-.45Z"/>
    <path class="st0" d="M1565.31,1127.63c5.54-.68,11,1.13,12.61,6.33,9.5,30.68,29.16,58.01,28.79,91.95,3.59,3.74,7.78,7.75,7.85,13.05.6,43.18,11.87,85.66,7.79,129.11-.28,3-1.78,5.64-3.47,8.09v53.9c-1.41,0-2.83.01-4.24.01,0-21.07,1.25-42.23-.23-63.18-5.05-71.63-9.9-143.42-35.88-211.28-3.72-9.72-8.52-18.99-12.82-28.46,0,.01-.4.48-.4.48Z"/>
    <path class="st0" d="M1690.29,1124.85c1.4-7.27,5.62-6.65,11.37-5.33,18.03,4.14,34.4,12.81,49.74,22.35,37.95,23.59,78.42,41.96,117.43,63.31,6.3,3.45,13.55,6.02,16.53,14.1-6.66,4.68-10.49-2.1-14.97-4.4-57.03-29.29-113.89-58.92-170.86-88.33-2.84-1.47-5.45-5.62-9.47-2.17l.23.47Z"/>
    <path class="st0" d="M1633.57,1436.05c-6.33-12.88,1.99-24.83,2.33-37.35,1.41-51.89-2.62-103.82-6.1-155.24-2.21-32.73-22.65-64.14-34.91-96.15-.7-1.83-1.32-3.69-2.27-6.34,38.68,23.41,64.45,215.71,40.41,294.82.05.04.54.26.54.26Z"/>
    <path class="st0" d="M1540.09,1128.54c-1.26,93.47,17.12,187.25,2.26,281.11,10.84-93.72-11.65-187.09-2.26-281.11Z"/>
    <path class="st0" d="M1671.83,1357.86c10.25-77.61,6.37-151.06-58.53-206.61,59.54,30.65,88.71,136.37,58.53,206.61Z"/>
    <path class="st0" d="M1578.82,1421.47c-11.98-.1-9.02-9.51-9.03-16.28-.06-49.66-.41-99.34.65-148.99.37-17.18-3.63-33.74-3.29-50.73,23.23,70.67,2.09,144,12,215.47l-.33.53Z"/>
    <path class="st0" d="M1508.83,1185.91c1.29-12.78,13.08-20.84,13.93-33.65v224.99c-1.9.03-3.8.06-5.7.09,0-26.12.48-52.25-.12-78.35-.76-33.13-2.35-66.24-3.71-99.36-.21-5.12.45-10.76-4.78-14.17-.01,0,.38.45.38.45Z"/>
    <path class="st0" d="M1495.19,1385.61c-11.45-33.72-10.75-69.2-12.68-104.04-1.6-28.82-2.15-58.23,7.54-86.51.19,62.21-1.33,124.43,8.64,186.05-.42,2.12-1.59,3.62-3.5,4.5Z"/>
    <path class="st0" d="M1754.76,1117.49c5.04-11.82,14.86-5.3,20.73-3.58,40.43,11.83,80.82,24.06,120.48,38.34,15.85,5.71,26.59,20.26,37.71,38.75-53.27-48.87-119.18-53.87-179.39-74.02-.01-.01.47.51.47.51Z"/>
    <path class="st0" d="M1648.98,1135.67c33.95,33.4,69.28,64.41,113.48,83.44,10.38,4.47,17.49,17.03,26.1,25.86-2.74,1.73-5.48,3.47-8.22,5.2-7.83-13.9-19.45-21.5-33.33-29.62-37.33-21.82-78.73-40.31-98.03-84.88Z"/>
    <path class="st0" d="M1688.3,1131.13c-17.61-13.29-38.22-16.74-60.47-20.22,4.51,12.33,23.07,9.97,21.65,25.35-21.13-12.14-40.05-31.01-72.97-20.08,34.03-22.66,82.76-17.2,113.76,8.62.03.05-.27-.53-.23-.48-.56,2.31-1.15,4.56-1.74,6.81Z"/>
    <path class="st0" d="M1664.24,1367.84c-.29-61.96-6.8-123.19-31.96-181,36.84,55.18,36.78,117.44,31.96,181Z"/>
    <path class="st0" d="M1618.89,1376.16c.49-50.47-8.41-100.14-12.18-150.24,1.24-1.62,2.48-3.23,3.72-4.85,12.3,10.17,8.13,25.06,10.25,38.13,1.88,11.6-3.61,23.89,3.09,35.04,6.38,18.37,3.4,37.23,2.76,55.97-4.33,8.19,2.5,18.46-4.59,26.13l-1.53.03-1.52-.21Z"/>
    <path class="st0" d="M1582.49,1125.74c36.47-13.86,86.39,40.54,106.07,85.63-31.81-37.75-56-78.64-106.07-85.63Z"/>
    <path class="st0" d="M1486.05,1396.71c-18.46-51.92-25.16-105.22-13.47-160.1-.77,53.76,2.28,107.14,13.47,160.1Z"/>
    <path class="st0" d="M1802.73,1199.44c-1.02,6.13-4.07,4.2-7.48,2.17-31.26-18.6-62.59-37.09-93.83-55.74-4.41-2.63-8.73-5.72-8.46-12.03,39.97,15.85,73.07,43.92,109.77,65.6Z"/>
    <path class="st0" d="M1754.96,1262.52c-2.59.04-5.19.09-7.78.13-22.33-15.05-32.34-41.15-50.41-60.74,19.99,22.73,51.87,26.21,70.62,50.71-12.92-7.42-25.85-14.84-43.49-24.97,8.17,18.85,25.8,21.13,31.06,34.87Z"/>
    <path class="st0" d="M1879.52,1108.7c-43.15-14.02-87.13-24.37-131.92-31.04,30.78-6.27,101.64,10.55,131.92,31.04Z"/>
    <path class="st0" d="M1935.01,1271.7c-11.39-6.05-.16-19.62-8.36-26.73-6.9-35.92-26.88-61.87-62.16-81.3,19.67.17,29.6,8.68,38.59,19.14,21.79,25.38,36.04,53.62,31.93,88.89Z"/>
    <path class="st0" d="M1560.62,1249.69v164.02c-1.34.03-2.68.06-4.02.09v-155.08c-1.47-4.34-4.14-9.25,4.02-9.03Z"/>
    <path class="st0" d="M1807.87,1068.51c-55.06-11.9-109.91,4.04-164.6-2.78,55.01-2.89,110.03-12.18,164.6,2.78Z"/>
    <path class="st0" d="M1682.4,1219.06c17.08,33.4,19.7,88.2,6.41,111.71-.81-38.35,2.67-75.82-6.41-111.71Z"/>
    <path class="st0" d="M1534.16,1263.45v156.73c-.94,0-1.88,0-2.83-.01v-156.73c.94.01,1.88.01,2.83.01Z"/>
    <path class="st0" d="M1645.77,1255.95c12.07,44.61,6.73,89.91,6.29,135.02-3.11-44.97-1.93-90.1-6.29-135.02Z"/>
    <path class="st0" d="M1986.89,1276.58c-2.86-.17-5.71-.35-8.57-.52-4.57-38.16-11.09-75.84-24.23-112.05,22.8,33.69,21.73,75.1,32.8,112.57Z"/>
    <path class="st0" d="M1560.62,1249.69c-1.34,3.01-2.68,6.02-4.02,9.03-8-31.32-.01-64.01-7.52-95.45,13.99,27.4,9.36,57.4,11.54,86.42Z"/>
    <path class="st0" d="M1579.16,1420.93c9.34-20.01,2.36-41.18,3.96-61.75.98-12.57.18-25.28,1.69-37.94,6.33,20.97,3.53,42.28,3.46,63.54-.06,16.83-4.52,34.86,9.03,49.14.03-.04.42-.61.44-.65-11.13,4.33-14.03-5.45-18.92-11.8,0,0,.34-.54.34-.54Z"/>
    <path class="st0" d="M1623.77,1294.24c-.38,1.45-.35,3.27-1.21,4.28-6,7.03-3.59-1.71-3.62-2.5-.91-25.22,2.11-50.9-8.52-74.95q6.73-.12,8.46,4.37c8.57,22.41,1.94,45.97,4.89,68.8Z"/>
    <path class="st0" d="M1874.12,1230.22c-1.81,1.87-3.62,3.75-5.43,5.62-14.64-17.07-42.89-14.25-54.8-42.73,19.79,18.45,43.11,21.92,60.23,37.11Z"/>
    <path class="st0" d="M1724.7,1270.95c-7.3,4.35-2.28,14.61-8.73,19.37,5.83-25.43-13.73-43.61-20.5-72.18,17.54,17.98,23.51,35.32,29.23,52.81Z"/>
    <path class="st0" d="M1894.74,1108.66c24.74,3.23,38.06,18.3,51.63,33.01-16.01-10.24-32.02-20.47-51.63-33.01Z"/>
    <path class="st0" d="M1495.19,1385.61c1.17-1.5,2.33-3,3.5-4.5,3.83,21.12-1.98,42.94,4.22,63.95-13.44-18.32-4.54-39.74-7.72-59.45Z"/>
    <path class="st0" d="M1621.94,1376.35c2.79-8.48-.82-18.15,4.6-26.13,1.09,22.49,2.52,44.98-4.6,67.52v-41.39Z"/>
    <path class="st0" d="M1993.54,1254.12c1.59-16.2-7.9-31.04-5.35-52.3,7.48,20.14,10.31,35.78,5.35,52.3Z"/>
    <path class="st0" d="M2007.44,1217.78c.47,12.17,8.46,23.3,4.59,40.35-3.5-16.04-9.76-27.25-4.59-40.35Z"/>
    <path class="st0" d="M1522.74,1474.53c.28-15.77,12.39-23.62,27.02-28,14.44-4.32,23.43,3.71,28.98,16.8,9.54,22.48,14.02,47.49,31.75,65.9,2.78,2.88,4.96,7.95,1.13,12.21-2.86,3.18-6.69,2.59-10.15,1.12-5.45-2.33-10.56-3.56-16.8-2.03-24.18,5.93-51.35-11.3-57.8-36.68-2.2-8.65-2.57-17.79-4.13-29.32Z"/>
    <path class="st0" d="M1754.13,1390.95c2.92-12.8,9.68-16.87,15.95-19.77,36.3-16.77,74.23-20.82,113.3-13.33,6.09,1.17,11.39,4.02,11.35,11.47-.04,6.22-5.02,6.65-9.43,6.68-21.95.11-44.1-1.84-65.79.57-21.35,2.37-42.24,9.1-65.38,14.38Z"/>
    <path class="st0" d="M1950.82,1418.53c-.4,27.01,10.81,48.72,25.88,69.88,14.62,20.53,6.04,45.04-14.51,47.42-3.57.41-7.77,1.59-9.48-2.6-1.64-4.01,1.07-6.33,4.68-8.49,17.78-10.62,13.38-22.11,2.94-36.56-15.04-20.81-22.92-44.04-9.51-69.65Z"/>
    <path class="st0" d="M1943.03,1517.95c.13,1.95.51,3.08.18,3.38-8.34,7.66-15.64,18.61-29.18,12.4-2.89-1.33-5.41-5.77-1.95-9.35,9.01-9.33,19.75-9.35,30.95-6.43Z"/>
    <path class="st0" d="M1768.07,1208.18c-17.97-5.49-32.51-16.09-43.77-31.56,14.59,10.45,33.56,14.55,43.35,32,0,.01.42-.44.42-.44Z"/>
    <path class="st0" d="M1653.87,1130.24c19.96.92,32.57,13.01,42.07,29.82-14.02-9.94-28.04-19.88-42.07-29.82Z"/>
    <path class="st0" d="M1534.1,1474.96c-1.28-6.63,2.64-14.59,13.74-17.2,13.16-3.09,20.55,5.3,24.42,16.34,3.81,10.87,5.88,22.45,8.05,33.85,1.2,6.3,9.57,13.85-1.26,19-8.24,3.92-16.61,4.69-24.52-1.93-14.06-11.76-18.63-27.73-20.43-50.06Z"/>
    <path class="st0" d="M1966.94,1584.24c-.71,8.6-7.19,14.95-11.1,12.57-24.33-14.79-47.86,1.19-71.65.43-5.8-.19-11.81,1.52-17.07-1.67-2.15-1.31-3.82-4.44-4.44-7.05-.3-1.27,2.51-4.84,3.63-4.71,28.68,3.14,54.93-17.06,83.8-9.41,6.16,1.62,15.03,1.39,16.83,9.84Z"/>
    <path class="st0" d="M1945.51,1610.27c-15.95,23.97-25.45,25.17-46.38,5.13,16.97.26,32.23,2.7,46.38-5.13Z"/>
  </g>
  <g>
    <g>
      <g>
        <path class="st0" d="M1360.86,1832.3c-31.16-1.56-137.75-6.89-138.05-18.32-.11-4.06,13.62-3.04,29.61-13.13,35.45-22.36,59.8-83.64,51.72-129-6.82-38.26-23.36-70.98-50.11-96.91-34.28-33.23-53.35-78.55-85.21-113.95-7.22-8.02-18.64-25.36-14.27-44.2,3.39-14.61-13.47-20.08-19.23-31.49-5.08-10.08-9.5-16.22-1.52-25.7,9.44-11.21,1.58-17.47-6.43-23.59-4.46-13.56-8.06-26.87,8.31-35.09,1.13-.57,2.41-2.04,2.6-3.27,3.11-19.68,8.6-40.23,10.59-58.39,3.29-30.03,14.33-51.44,30.91-73.2,11.92-15.64,29.35-26.66,35.47-47.32,4.07-13.72,15.89-17.24,27.83-19.29,7.03-1.2,14.08-.61,11.62-12.37-4.01-19.24,8.71-22.17,22.33-22.3,11.8-.11,22.91,1.37,31.37-11.29,4.07-6.09,14.7-9.35,21.04-4.98,17.91,12.36,23.33-2.14,29.68-13.7,7.64-13.91,17.46-20.86,33.6-20.44,11.33.3,13.99,9.83,20.75,14.87.57.84,1.13,1.68,1.71,2.52,1.76,14.19-6.48,22.43-17.36,26.11-25.43,8.59-48.87,23.22-75.73,27.37-2.8.43-5.5-.01-8.07-1.23-3.49-2.08-2.23-5.85-2.89-8.95-2.85,3.12-.36,6.22.06,9.35-5.71,24.84-18.71,9.9-31.8,5.04,7.56,20.56-4.49,23.7-18.59,25.36-11.52,1.36-22.9,3.22-20.93,20.27.33,2.89-1.31,6.05-3.49,7.71-13.09,9.97-28.13,16.15-33.14,36.52-1.81,7.37-18.09,11.48-13.55,26.32.57,1.86-.76,4.68-2.32,5.9-24.68,19.33-18.56,50.28-25.92,76.03-3.35,11.72-3.55,23.64,3.17,35.84,7.5,13.62-7.38,26.99-3.7,42.14,1.5,6.18-1.32,12.34,7.18,15.35,6.03,2.14,11.19,8.29,10.56,15.1-2.29,24.7,12.21,42.8,21.66,62.69,9.16,19.27,20.06,37.64,29.27,56.94-20.17-40.11-14.18-90.59,13.42-111.42,32.04-24.19,58.58-15.35,100.9,33.73,13.69-12.67,15.02-30.34,16.5-47.36,1.8-20.69,9.33-37.96,23.4-52.31,7.04-7.18,11.87-16.35,18.54-23.65,12.79-13.99,15.96-28.33,6.51-45.53-4.85-8.84-5.21-18.33.85-26.88,8.12-11.45,4.3-20.27-4.71-28.44-3.16-2.86-6.23-5.88-8.5-9.62-3.17-5.24-4.8-10.8-.84-16.26,3.56-4.92,8.63-3.75,13.45-2.51,3.4.87,7.81,1.55,9.49,4.21,11.35,18.06,30.58,31.79,29.27,56.96-1.2,3.45-4.53,3.9-7.37,5.47,4.69,1.39,5.03-3.16,7.12-5.19,8.43-19.69,20.68-37.84,20.02-60.99-.17-6.05,4.27-10.91,11.15-10.39,7.28.56,8.51,6.35,8.95,12.51.93,12.89,2.43,27.2,18.53,26.01,15.4-1.14,22.44-12.92,21.43-29.24-.33-5.3-.28-10.62,5.55-12.63,5.35-1.85,9.33,1.49,12.91,5.15,3.58,3.65,5,8.72,7.63,12.97,5.66,9.14,14.45,8.66,22.15,5.08,6.84-3.18,7.94-16.9,19.29-12.77,8.51,3.09,11.18,12.62,17.03,18.82,4.12-2.99,2.28-8.17,4.27-11.9,6.47-12.11,15.53-13.91,22.2-2.57,10.49,17.85,24.64,29.27,43.81,34.36,3.41.9,8.87,2.55,8.8,4.98-.57,17.73,16.04,17.04,23.9,25.52l-.09,5.43c-.32,1.12-.74,2.79-.98,4.85-1.24,10.39,3.23,18.5,5.72,24.2,2.73,6.25,5.65,15.51,6.27,28.52,4.58,42.04,12.29,78.66,5.22,103.9-8.34,29.79-8.7,59.5-5.22,90.58,5.03,44.97-1.28,88.78-28.23,126.91-8.29,11.73-12.58,25.76-18.08,39.13-16.45,40-34.92,62.03-82.99,55.17-21.51-3.07-26.29,4.87-26.83,26.28-.44,17.29,1.55,31.55,8.5,43.56,10.19,17.6,26.16,18.73,25.47,23.79-1.29,9.39-54.87,8.55-85.72,8.23-116.06-1.17-95.56,3.12-157.42.02Z"/>
        <path class="st0" d="M1413.5,1029.26c.03-.56.51-8.88,5.57-11.38,5.76-2.86,13.24,3.81,13.69,4.9,5.91,14.35,12.02,7.31,20.82,6.26,17.99-2.14,37.53-12.36,53.88,6.1,3.26-5.79,6.3-11.18,10.26-18.21,8.35,8.74,1.65,17.08,1.79,27.94,25.47-14.32,46.86-9.16,66.04,9.59,2.11,2.07,7.43,3.16,9.86,1.85,20.8-11.19,35.51-2.21,48.09,14.86,4.36,5.92,10.33,5.97,16.78,6.13,25.52.64,41.24,12.56,45.25,37.91,2.33,14.73,8.5,16.9,19.67,13.1,3.37-1.15,9.41-1.98,9.12-.99-6.29,21.58,26.54,28.33,17.85,47.74-5.37,12,.47,14.51,6.02,19.93,22.92,22.36,21.91,38.53-4.46,57.66-6.89,5,.04,6.66.98,9.31,10.1,28.33-.93,47.68-27.49,47.71-1.72-18.21-16.24-33.11-12.43-52.74h0c.43-.38,1.1-.87,2-1.21,1.47-.55,2.76-.39,3.4-.26,9.73,4.43,14.01,13.27,16.76,22.12.74-11.11-15.14-16.52-11.42-29.96,3.77-11.16-8.51-8.88-11.47-14.77-2.93-5.83-8.03-11.24-4.6-17.89,3.73-7.22,10.59-5.42,16.73-3.31,7.19,2.48,14.1,5.62,20.46,10-14.2-9.6-18.15-28.01-31.61-39.07-8.26-6.79,1.25-15.34,8.04-22.16-12.06-5.15-22.95-12.23-36.92-8.22-9.65,2.77-14.08-2.43-9.32-11.74,5.69-11.12,1.03-13.65-8.31-15.47-7.21-1.4-12.89-6.22-14.23-14.22-1.48-8.83,5.35-10.64,11.35-12.76-6.16-2.86-10.98.66-15.74,3.84-9.7,6.48-17.36,4.3-22.25-6.3-5.57-12.07-13.84-15.84-25.46-10.33-16.08,7.62-23.53-8.98-34.21-14.58-12.64-6.63-24.21-9.99-37.74-7.52-6.89,1.26-14.98,3.86-20.39-.69-23.99-20.17-50.6-11.05-75.97-7.27-17.12,2.55-22.24-1.11-17.95-18.51.67-2.73-.89-5.66-2.92-7.86.19.16.33.31.48.47Z"/>
        <path class="st0" d="M1267.23,1554.74c18.81,18.14,40.28,28.07,66.34,22.86,4.88-.98,12.95,2.14,13.44-6.4.52-9.14-7.93-10.25-13.53-9.52-39.48,5.14-61.82-20.04-81.51-49.73-13.94-21.03-15-45.55-11.98-69.39,2.94-23.17,32.82-34.77,53.39-22.18,17.05,10.43,29.55,26.45,43.12,41.05,6.56,7.05,14.03,14.36,23.19,12.02,9.09-2.33,5.84-13.34,7.27-20.8,4.74-24.7,12.57-48.6,13.51-74.32.63-17.19,14.42-28.16,26.79-37.16,23.01-16.74,37.87-36.19,26.92-67.71,13.18.41,20.8,10.72,32.9,9.38-.45-14.24-11.03-31.39,5.39-41.44,13.54-8.29,24.36,13.96,39.15,6.78,3.06-7.06-6.08-6.46-6.41-11.95,14.28-1.32,25.49-9.21,36.48-24.47-4.09,24.4,15.07,23.99,21.6,20.72,17.88-8.94,27.46-6.23,37.44,11.58,5.8,10.35,12.62,4.54,14.64-5.78l-.25.36c11.17-16.44,21.32-15.17,32.58.64,5.33,7.48,10.14,16.51,23.72,23.26-8.11-13.63-13.65-22.96-19.86-33.4,6.27,2.62,14.44,7.32,20.06,16.21,2.52,3.99,2.83,6.13,5.31,10.15,7.15,11.56,14.68,10.09,21.15,17.52,14.57,16.7,10.19,62.88,12.53,67,.6,1.06.87,1.77,1.01,2.38.4,1.78.48,3.18.48,3.52-.02,5.42,8.07,25.62,3.58,29.21-.87.7-1.96.57-4.34.07-15.45-3.24-22.06-8.78-25.56-6.07-.68.53-1.6,3.66-3.44,9.93-.96,3.28-1.44,4.91-1.39,5.25,1.3,7.95,32.4,3.84,36.7,15.51.48,1.29.08,1.3-1.41,11.45-.27,1.81-.61,8.44-2.61,21.52-.9,5.87-1.87,13.46-2.7,23.51-3.86,46.77,7.1,42.7,2.83,82.87-2.01,18.93-6.54,61.5-24.65,80.98-2.43,2.61-11.27,11.44-17.35,26.28-2.52,6.16-3.21,10.67-4.27,13.82-17.37,51.57-35.18,62.02-86.89,50.88-42.22-9.09-83.5-21.62-124.06-36.86-33.8-12.7-61.15-34.17-81.91-64.93-6.7-9.93-13.8-19.62-28.59-24.83-.34-5.44-.56-8.93-.56-8.93-20.26,2.52-22.2,2.59-22.2,2.59-5.25.2-24.47.92-40.38-10.46-3.54-2.57-3.73-3.43-15.67-12.97-12.03-9.61-13.63-10.17-14.03-9.76-.98,1,4.39,8.32,9.21,14.85,6.51,8.81,10.46,13.19,20.71,25.15,14.24,16.61,15.92,19,19.89,19.12,7.33.22,9.71-7.71,19.68-8.01,6.45-.2,11.38,2.94,13.46,4.27,2.07,1.32,7.62,5.25,16.42,24.27,2.59,5.59,3.41,8.58,6,14.47,15.95,36.3,71.56,56.65,76.3,58.33,25.55,9.06,82.46,23.32,106.03,30.83,3.18,1.01,10.59,3.49,14.08,10.34,2.06,4.03,1.9,7.91,1,16.1-2.77,25.22-5.79,29.74-2.99,36.75,3.89,9.74,13.5,10.46,13.17,13.78-.91,8.97-71.22,7.73-113.31,7.37-54.8-.46-167.93-.33-168.45-9.67-.08-1.42,2.28-6.22,6.09-9.51,1.53-1.32,2.84-2,3.08-2.14,4.82-2.69,36.35-39.29,34.92-98.52-.43-17.76-1.32-54.51-23.91-82.06-5.96-7.27-21.65-24.33-42.16-50.86-3.84-4.97-10.33-13.68-9.21-14.85,1.11-1.17,9.32,5.67,14.02,9.75Z"/>
      </g>
      <path class="st0" d="M1481.54,1378.13c2.09-10.64,10.58-15.22,17.79-19.96,34.08-22.42,70.94-22.2,108.36-12.18,6.63,1.77,16.81,5.2,13.08,15.69-3.28,9.2-11.72,4.2-18.19,2.58-35.41-8.85-69.96-8.07-103.38,9.07-5.22,2.67-10.58,7.11-17.66,4.8Z"/>
      <path class="st0" d="M1254.45,1467.8v21.4c-1.18.09-2.36.18-3.54.27-1.63-14.24-4.28-28.47-4.59-42.74-.31-14.12,14.23-24.59,27.66-21.61,20.24,4.48,42.02,36.8,38.93,58.07-1.51,10.41-4.08,19.75-17.03,10.88-2.37-3.02-2.41-6.02.1-8.98,5.63-18.74-4.46-29.49-17.87-38.54-16.49-3.4-15.62,14.36-23.66,21.25Z"/>
      <path class="st0" d="M1295.97,1485.1c-.03,2.99-.07,5.99-.1,8.98-12.18-4.43-14.8,5.67-15.39,13.49-.63,8.41,7.52,9.62,13.83,9.12,6.69-.53,14.06.69,19.47-5.64,7.37-8.62,11.1-.37,13.94,4.47,4.01,6.84-.1,11.68-6.62,12.14-15.72,1.09-31.6,4.47-45.91-7.72-8.85-7.54-16.75-15.22-11.61-27.1,3.73-8.62,14.54-6.6,22.4-8.47,3.12-.74,6.65.43,9.99.73Z"/>
      <path class="st0" d="M1303.01,1604.09c28.98-20.1,37.6.75,48.78,23.97,17.16,35.65,49.41,54.2,83.08,69.35,33.95,15.28,70.03,23.57,106.03,30.83,6.93,1.4,10.88,3.33,13.03,6.41,2.93,4.21,2.62,9.26,2.15,14.46-2.52,27.69-6.47,34.01-3.08,42.32,4.08,10,13.6,10.13,13.17,13.78-1.01,8.41-51.39,7.31-154.05,7.35-20.04.01-40.07-1.22-60.11-1.67-44.24-.98-66.05-.9-67.6-7.98-.89-4.06,5.25-8.53,9.17-11.65,35.41-28.16,47.94-115.84,18.5-172.48-3.4-6.49-6.77-11.49-9.07-14.69Z"/>
      <path class="st0" d="M1675.21,1578.9c-1.8,9.77-10.15,16.24-14.51,13.02-27.1-20.02-56.68-4.62-84.69-8.48-6.83-.94-14.12.27-19.98-4.05-2.4-1.77-4.02-5.57-4.46-8.65-.21-1.49,3.5-5.23,4.82-4.95,33.53,7.19,66.79-12.69,100.04-.3,7.08,2.65,17.59,3.49,18.78,13.41Z"/>
      <path class="st0" d="M1655.91,1603.42c-27.41,27.88-40.85,27.08-65.41-4.9,23.46,4.64,44.07,11.74,65.41,4.9Z"/>
      <path class="st0" d="M1645.52,1416.91c-.38,26.14,10.3,47.15,24.67,67.63,13.94,19.87,5.76,43.58-13.83,45.89-3.41.4-7.4,1.54-9.03-2.52-1.56-3.88,1.02-6.13,4.46-8.22,16.95-10.28,12.76-21.4,2.8-35.38-14.35-20.14-21.86-42.61-9.07-67.4Z"/>
      <path class="st0" d="M1638.09,1513.12c.12,1.89.49,2.98.17,3.27-7.95,7.41-14.91,18.01-27.81,12-2.75-1.28-5.16-5.59-1.86-9.05,8.59-9.02,18.83-9.04,29.5-6.22Z"/>
    </g>
    <path class="st0" d="M1343.92,1437.96"/>
    <path class="st0" d="M1342.86,1435.89c-8.38-8.71-15.85-15.84-21.77-21.28-19.11-17.56-26.76-21.79-35.36-23.34-5.07-.92-9.39-.71-12.34-.37-5.1.39-13.07,1.7-21.5,6.42-25.03,14-31.18,45.17-32.73,53.03-4.03,20.42-.45,37.84,2.56,47.91-8.48-16.53-16.18-29.43-21.7-38.22-12.39-19.73-20.21-29.07-22.93-45.77-1.57-9.64-.81-17.92.06-23.37-.64-1.69-1.89-4.33-4.26-6.78-1.1-1.14-2.64-2.72-5.07-3.68-1.73-.68-2.41-.45-3.71-1.35-1.78-1.23-2.59-3.1-2.98-4.02-.71-1.69-.53-2.34-1.1-7.56-.4-3.63-.51-3.56-.67-5.7-.07-1.02-.3-4.19-.1-6.73.34-4.21,1.84-6.25,3.58-10.47,1.14-2.76,2.52-6.82,3.41-12.19.02-.55.02-1.4-.07-2.41-.46-5.05-2.78-8-4.53-11.59-1.66-3.41-2.2-6.18-3-10.26-1.63-8.29.34-15.24,1.43-19.6,5.81-23.19.54-27.25,7.72-49.65,3.15-9.8,4.81-14.8,9.11-19.23,5.16-5.32,10.15-6.16,11.57-11.79,1.33-5.28-2.28-7.61-.32-12.64,1.03-2.63,3.35-4.72,8-8.89,3.04-2.73,4.17-3.23,5.35-5.46,1.23-2.33.96-3.58,2.24-7.18.99-2.79,2.1-4.67,3.14-6.44,3.27-5.57,7.61-9.41,10.05-11.49,14.88-12.69,20.85-12.85,21.82-19.03.6-3.85-1.33-6.26.45-11.09,1.34-3.63,3.73-5.77,4.59-6.53,6.15-5.39,11.57-2.11,23.8-5.89,5.93-1.83,9-2.78,10.98-6,4.07-6.62-.66-16.07,1.98-17.51,1.54-.84,3.31,2.29,9.54,5.57,4.28,2.25,7.1,3.74,10.37,3.08,5.2-1.05,9.17-7.06,9.89-12.39.62-4.68-1.25-8.95-.97-9.04.27-.09,1.47,4.13,2.07,5.28,2.74,5.27,22.02,2.64,85.49-24.82,4.42-1.61,7.4-3.7,9.31-5.34,1.9-1.63,3.6-3.53,5.69-3.19,1.73.28,2.79,1.94,3.12,2.4,4.14,5.78,20.59,2.76,21.85,2.53,19.6-3.59,29.41-5.39,39.26-5.08,10.82.34,16.75.52,22.12,4.91,2.3,1.88,5.64,5.46,11.74,8.18,1.85.83,4.05,1.81,7.01,2.24,6.19.89,8.82-1.63,15.23-2.57,5.02-.74,8.66.04,15.38,1.48,3.41.73,9.28,2.26,16.52,5.76,18.56,8.97,17.84,17.23,27.53,17.97,9.86.76,14.22-7.52,23.1-3.8,1.62.68,5.48,2.3,8.34,6.3,2.38,3.33,2.51,6.12,5.95,10.29,1.38,1.68,2.41,2.92,4.03,3.91,6.08,3.75,14.31.2,20.23-2.36,3.99-1.72,7.98-4,8.08-3.8.11.23-5.4,1.95-7.41,6.57-1.9,4.36-.48,10.84,2.82,14.99,6.72,8.47,18.73,4.19,20.74,10.47,1.22,3.8-1.61,10.3-2,11.22-1.25,2.88-2.49,4.11-2.24,6.31.28,2.5,2.31,4.88,4.62,5.83,3.57,1.47,5.94-1.24,12.19-1.94,3.22-.36,5.92-.02,7.69.33,18.52,4.95,23.09,7.84,22.91,9.62-.07.71-.84.75-3.25,3.33-2.23,2.39-3.47,4.39-4.55,6.16-1.76,2.88-1.93,3.91-1.99,4.49-.09.89-.05,2.28.78,4.19,1.75,4,4.82,5.27,7.7,7.87,2.13,1.92,2.31,2.9,6.34,9.58,7.91,13.13,11.27,16.08,10.32,17.52-1.95,2.94-16.3-9.08-24.2-3.2-2.08,1.55-3.64,4.29-4.06,6.99-.57,3.66,1.02,6.88,3.36,11.63,1.43,2.89,2.14,4.33,3.23,5.33,2.91,2.66,5.52,1.77,8.82,5.05.94.94,1.83,1.84,2.23,3.33.57,2.13-.31,3.72-1.02,6.66-.41,1.67-.83,4.08-.84,7.17-5.21-3.72-9.66-6.43-12.81-8.24-10.48-6.02-15.05-6.98-17.82-12.56-2.28-4.6-.33-6.28-2.7-10.11-3.26-5.26-8.3-4.25-17.86-8.01-2.94-1.16-12.38-4.98-20.66-13.52-5.06-5.21-8.19-8.44-11.17-13.9-1.73-3.17-3.57-7.42-7.79-9.91-2.77-1.63-5.01-1.6-5.63-1.57-2.41.11-4.13,1.18-5.11,1.81-4.18,2.67-6.08,7.08-6.96,9.22-2.4,5.78-1.55,9.1-3.07,9.54-1.27.37-2.45-1.81-8.35-9.12-3.79-4.7-4.62-5.43-5.54-6.08-1.25-.88-5.56-3.92-9.84-2.71-3.51.99-3.46,3.84-8.76,8.93-2.95,2.83-5.91,5.67-10.09,6.63-4.51,1.03-9.8-.27-13.63-3.46-4.94-4.11-3.64-8.21-10.9-16.92-1.44-1.72-3.25-3.67-6.09-4.77-1.08-.42-4.91-1.9-8.21.22-1.64,1.05-2.46,2.56-2.91,3.4-2.16,4.06-1.1,7.53-1.29,13.25-.1,3-.25,7.35-2.04,11.56-3.28,7.72-10.4,10.95-12.08,11.66-2.51,1.05-8.68,3.64-14.61.65-7.32-3.68-9.5-13.44-10.01-15.74-1.74-7.81.81-11.36-2.45-16.7-.64-1.06-3.05-5.01-7.33-5.63-5.79-.83-9.93,5.17-10.12,5.46-.18,1.98-.46,4.84-.88,8.26-.7,5.78-1.21,10.02-2.23,14.68-.31,1.44-1.38,6.14-4.48,14.33-4.43,11.73-8.85,23.41-12.21,22.84-2.26-.38-1.45-5.88-5.67-15.38-.68-1.52-.72-1.43-10.38-16.02-3.99-6.03-7.16-10.83-12.26-16.47-2.37-2.62-3.4-3.47-3.96-3.91-1.95-1.54-9.53-7.52-16.32-4.32-.52.25-4.39,2.14-5.8,6.49-1.75,5.37,1.42,10.85,3.08,13.71,5.32,9.19,11.77,9.23,14.81,18.46.45,1.36.99,3.04,1.09,5.35.34,8.15-5.4,10.97-7.32,20.4-1.06,5.19-.37,9.54-.03,11.55,1.14,6.85,3.51,7.67,5.99,16.08,1.3,4.39,2.66,9.16,1.89,14.97-.62,4.67-2.36,8.12-4.15,11.22-6.69,11.58-14.74,19.37-16.2,20.79-6.65,6.49-18.31,17.87-25.27,32.77-6.23,13.33-7.75,27.48-8.78,37.04-1.36,12.67-.73,21.95-6.75,32.22-3.03,5.11-6.56,8.57-9.11,10.7Z"/>
  </g>
  <g>
    <path class="st0" d="M960.75,1807.11c-2.02-12.31,29.47-17.61,39.51-58.66,15.76-64.43,10.45-122.75-47.53-165.33-29.29-21.51-41.48-55.15-45.76-91.26-3.12-26.29-19.99-46.07-27.13-70.42-17.67-60.28-24.57-120.81-8.33-182.68.72-2.73.18-5.81.23-8.73,8.76-35.72,22.41-67.1,53.68-89.15,21.05-14.85,44.95-24.32,64.5-42.34,13.95-12.85,31.63-24.23,53.04-18.37,41.97-5.8,83.81-9.02,126.33-4.3,84.04,9.32,157.38,41.25,213.24,109.05,20.62,25.02,42.85,56.87,35.61,89.13-14.25,63.52,3.67,128.24-13.43,190.93-6.39,23.4,2.17,47.86,3.63,71.84,2.07,33.84-2.49,65.12-22.65,93.05-14.91,20.65-24.09,45.03-36.52,67.34-14.36,25.77-32.27,39.89-60.15,37.66-12.85-1.03-16.44,3.28-18.17,15.89-2.77,20.17-3.58,31.89.63,41.25,1.12,1.49,2.87,3.65,5.25,5.97,8.2,7.96,14.12,8.23,17.61,14.18,1.39,2.38,2.7,6.19,1.96,12.29-262.96,15.91-332.38,2.06-335.55-17.34Z"/>
    <path class="st0" d="M987.38,1612.38c-2.17-.99-2.72-8,3.71-33.38-3.69,4.95,6.41,15.83-6.12,19.34-8.3-14.67-.16-31.13-4.62-46.27-2-6.78,3.15-16.75-8.44-18.99-8.94-1.73-16.28.45-22.1,8.06-1.69,2.21-4.12,3.79-6.21,5.66-8.9,5.72-17.83,7.17-26.79.14-4.84-.22-9.81-1.27-14.49-.47-7.14,1.22-15.85,7.57-19.59-3.19-3.6-10.38,6.55-13.93,13.96-21.35-5.27,22.54,6.94,14.61,16.77,12.84-5.17-12.4-7.75-23.86-25.49-13.23-10.42,6.24-24.26,5.07-34.95-5.03-8.24-7.78-17.02-14.95-25.32-22.67-7.13-6.63-16.8-12.19-14.46-24.56,2.68-14.1,15.61-17.5,25.15-24.08,6.43-4.43,10.36.45,12.6,6.43,2.27,6.06,5.31,12.81-.25,18.3-3.72,3.67-8.27,1.19-10.69-2.64-4.18-6.6-8.21-12.85-15.89-5.01-5.22,5.33-4.35,12.31-.6,17.86,4.5,6.66,10.71,12.97,19.25,7.9,9.43-5.59,18.03-12.7,26.92-19.09,5.9,9.78-7.73,11.16-6.35,20.44,8.28-1.54,14.58-6.66,20.33-12.11,4.86-4.61,5.13-9.38-1.41-13.92-23.83-16.55-39.71-39.08-49.12-67.72-7.35-22.37,2.73-31.36,19.83-39.86,11.77-5.85,32-.07,34.33-17.34,1.62-12.01-7.81-25.62-12.16-38.56-3.84-11.43-7.48-22.94-11.21-34.41,7.51-5.9,11.37,1.05,16.11,4.95,11.26,18.49,19.42,38.42,23.76,59.9,4.16,20.6.4,27.55-18.14,35.13-6.46,2.64-13.23,4.36-19.71,6.94-11.78,4.7-18.4,12.58-14.51,27.89,4.75-4.04,4.69-10.25,8.08-14.15,4.77-5.49,10.13-7.69,16.56-3.76,5.78,3.54,5.82,9.03,4.32,15.23-2.44,10.12-10.57,19.62-3.44,30.9,6.71,15.03,15.78,17.09,30.07,9.26,17.78-9.75,34.89-17.63,30.7-44.26-1.84-11.65,4.89-21.58,15.46-25.85,13.46-5.44,24.95-18.53,41.58-12.93,5.87,24.15-11.04,21.42-24.46,22.76-5.38,7.38-9.39,15.42-1.14,22.93,6.62,6.02,14.45,9.71,22.69-1.81-14.69,1.61-26.81-.03-23.57-19.52,4.18-3.4,9.11-1.41,13.67-2.13,15.53-2.45,18.33-10.44,9.15-25.87-15.72-18.02-27.3-38.59-34.3-61.83-7.78-25.82-.28-50.36,19.14-64.06,4.66-3.29,9.61-7.21,15.01-2.24,5.53,5.09,2.78,11.1-.77,15.58-20.25,25.63-11.31,49.24,5.17,71.28,20.64,27.6,36.08,55.33,19.41,91.7-10.55,23.02-23.04,30.2-47.53,24.13,8.47,4.58,16.83,4.98,25.51.18,7.58-4.19,15.88-5.6,24.31-3.61,7.06,1.67,14.28,3.87,9.84,14.44-5.37,5.74-12.68,5.45-19.44,6.71-13.58,2.53-15.97,9.45-8.5,21.4,5.37,8.59,18.04,15.98,10.54,27.96-6.39,10.2-19.08,6.84-29.28,6.71-27.57-.35-32.46-6.06-32.69-34.77-.05-6.38,2.46-12.79.17-19.34-11.33,13.76-10.57,32.6,1.72,47.86,11.43,14.21,26.24,20.45,43.67,22.65,25.33,3.2,25.85,4.99,12.94,26.36-1.9,6.17-2.92,11.51-1.17,12.64,5.45,3.51,37.09-34.16,31.46-42.28-3.68-5.31-21.68,4.34-24.58-.86-3.32-5.98,18.88-21.57,14.75-34.31-1.7-5.23-7.09-7.71-6.55-8.58.94-1.51,14.23,11.42,28.67,10.29,13.16-1.03,27.24-13.74,30.31-28.3,4.34-20.6-14.15-41.12-9.83-44.6,2.18-1.76,6.09,4.1,11.47,3.43,12.59-1.58,25.74-38.02,19.26-71.8-4.05-21.09-14.7-35.72-10.79-38.9,3.91-3.19,14.42,11.6,29.67,10.58,9.19-.61,16.18-6.7,24.52-15.91,34-37.52,36.04-66.76,52.86-68.37,10.43-1,22.57,9.02,23.76,18.01.72,5.42-2.86,8.11-4.1,12.87-6.04,23.27,51.75,66.42,61.44,57.46,5.72-5.28-8.44-25.79-3.28-30.02,10.48-8.59,75.58,70.25,89.24,59.96,4.84-3.65,1.96-17.55.53-24.49-1.9-9.22-6.33-17.44-12.73-25.61-5.9-9.44-8.25-20.16-10.5-30.93-8.54,14.53,8.9,19.99,10.3,31.07.72,8.3-3.42,14.06-10.67,11.15-14.01-5.62-30.35-10.42-35.35-27.55-5.02-17.19,7.43-26.28,19.22-34.6,1.15-.81,2.21-1.74,3.23-2.7q21.64-14.47-6.98-38.4c-3.89-3.11-8.06-5.57-13.22-5.58,5.33,1.35,10.56,2.92,14.37,7.44,1.4,2.72,1.59,5.59,1,8.55-3.3,7.4,1.12,12.43,5,17.66,1.93,4.15,3.11,8.17-1.57,11.31-32.53.96-55.98-26.14-50.43-58.2,2.32-3.96,6.26-5.91,9.67-8.51,5.64-6.49,2.62-15.01,4.75-22.3,3.68-12.57,9.09-12.89,15.93-2.36,1.55,19.52,11.73,30.17,29.26,37.42,24.74,10.23,39.12,29.78,36.69,59.62-1.78,21.9,1.04,41.04,20.21,55.87,14.43,11.17,8.01,27.83,2.54,42.31-9.52,25.15-8.29,32.23,13.65,47.11,8.49,5.76,5.05,15.37,9.31,22.86,6.14-7.02,1.83-13.98,3.36-20.14,1-5.1,3.66-8.56,8.64-9.8,12.68-.24,18.8,7.62,20.59,19.49,1.82,12.03-3.74,20.71-13.38,26.84-17.74,11.29-36.79,8.44-54.15-8.06-1.72-2.93-2.6-6.09-2.06-9.54.97-3.21,4.63-4.42,5.52-7.95-2.17,1.25-1.88,4.52-4.34,5.44-7.69,11.2-7.26,24.66-9.55,37.27-.76,4.2-.53,8.1.83,11.62,1.68,4.35,4.8,4.85,7.3,9.07,1.43,2.42,2.95,6.39,2.54,12.75,17.96,51.12,12.76,84.13,4.91,104.57-1.72,4.49-2.66,5.99-14.72,28.61-40.26,75.55-38.03,74.23-41.41,78.24-50.18,59.6-241.44-5.05-269.81-65.13-1.42-3.01-10.93-24-31.96-38.88-12.88-9.11-27.91-14.39-31.81-9.8-3.3,3.89,3.78,11.97-.12,22.52-2.41,6.36-8.04,11.69-10.39,10.62Z"/>
    <path class="st0" d="M1396.22,1386.27c3.34-12.29,5.11-18.81,5.11-18.81h0s-45.27-3.34-66.01.69c-5.81,1.13-10.86,3.89-10.82,11.1.01,1.85.47,3.18,1.22,4.12,2.1,2.64,6.42,2.41,7.77,2.34,6.52-.34,30.03.01,62.73.56Z"/>
    <path class="st0" d="M1036.2,1435c-11.25-15.37-24.32-10.73-37.56-3.69-13.55,7.2-33.41-1.53-37.84-16.7,13.59,8.8,43.1,9.36,50.68.96,12.68-14.05,18.71-53.92,9.41-69.84-7.95-13.61-17.78-26.01-26.37-39.24-19.45-29.97-18.59-47.34,3.05-74.49,1.6-2.01,3.81-4.34,2.02-7.58-23.71,6.85-36.67,31.99-29.36,58.48,4.44,16.09,11.18,31.15,21.16,44.59,5.38,7.25,12.46,14.16,10.97,24.93l.39-.41c-10.02,9.42-22.75,13.4-34.97,17.71-15.54,5.48-20.91,15.65-16.31,31.46,4.58,15.79.58,25.76-15.05,30.81-6.43,2.08-12.92,5.74-17.98,10.36-18.25,16.65-29.7,9.99-37.8-10.82-3.05-13.92,2.92-21.46,15.61-24.23,1.99.56,3.74,1.64,5.44,2.91,5.31,3.99,9.33,12.57,17.31,8.41,5.47-2.85,3.52-6.84-2.01-8.21-3.34-.82-6.89-.7-10.11-2.07-7.15-3.05-9.49-7.92-5.01-15.24,5.23-5.41,11.92-7.65,18.84-7.76,16.38-.26,17.53-9.15,13.94-23.02-3.23-12.48-6.19-25.07-9.23-37.62-4.85-20.04,1.9-36.01,17-48.59,12.47,13.18,5.74,35.95,20.15,45.65-16.58-27.22-18.25-56.1,2.28-84.65,7.4-10.29,11.53-21.63,10.44-34.54-1.71-20.29,5.83-35.31,20.26-44.01-13.32,8.61-22.41,21.58-21.38,42.43,1.26,25.58-15.94,44.23-26.2,65.42-7.85,8.99-16.32,16.97-19.71,29.87-3.21,12.18-10.33,9.55-15.83.67-13.02-21.02-9.23-45.06,9.55-62.15,12.91-11.74,28.25-21.67,29.12-40.93-7.94,25.2-25.08,42.94-49.31,53.76-2.43-2.18-3.37-5.02-3.4-8.27.87-6.99,6.45-10.5,9.97-14.85-8.63,7.37-13.47,18.42-20.13,28.05-3.78,5.47-7.2,13.02-15.81,6.97-.25-3.44-.51-6.88-.76-10.32-1.55-21.71,17.27-27.91,28.63-38.87,7.99-7.71,17.32-14.4,24.52-23.05,21.07-25.31,46.85-42.57,77.63-51.43,20.67-5.95,31.76-20.96,37.99-41.19-.6-6.66,13.84-3.93,7.91-13.91,12.22-14.06,30.11-13.35,45.12-19.29-15.19-3.9-28.11,14.62-44.23,5.86-2.55-1.6-5.09-3.2-7.64-4.79.87-21.5,21.46-40.4,39.71-35.71,11.34,2.92,22.89,4.99,34.01,8.81,4.55,1.83,9.23,2.98,14.11,3.63,11.33,1.5,16.62,8.31,12.29,19.75-6.95,18.4-3.67,36.19,2.71,53.21,5.43,14.49-.58,20.32-12.17,24.22-1.99.67-4.01,1.28-6.06,1.66-24.07,4.41-41.34,15.43-43.93,44.12-2.41,26.68,2.56,48.36,26.52,63.01,20.64,12.61,20.26,19.55.71,34.05-3.42,2.54-7.47,4.08-10.69,6.82-8.14,6.91-17.81,14.59-15.6,26.39,2.31,12.32,10.73,22.16,22.5,27.03,19.66,8.13,21.02,11.05,11.63,30.11-3.5,7.12-7.88,13.72-11.76,20.64-4.14,4.41-8.91,5.64-14.4,3.17-1.69-1.35-3.93-3.72-3.22-5.19,9.87-20.3-2.37-33.69-13.2-47.53-19.05-24.34-19.76-50.42-6.26-77.87-6.78,12.63-8.13,26.8-12.54,39.95-1.86,5.54-4.88,11.03-11.37,11.39-6.82.37-10.02-5.49-11.66-10.84-12.64-41.22-17.72-52.76,11.36-80.83,10.64-10.27,16.03-21.6,8.74-36.84-1.76-3.68-2.45-8.22-4-12.29-16.9-44.23-1.68-73.38,45.96-83.13-25.08,3.24-39.91,15.58-51.68,35.33-9.98,16.75-17.46,36.06-31.77,46.47,5.98-3.11,11.52-10.37,15.35-19.01,2.14-4.84,3.83-9.91,10.09-8.7,4.97.96,5.59,5.95,6.65,10.09.72,2.8-.2,6.28,1.13,8.6,17.28,30.14,11.12,54.41-15.25,75.23-11.44,9.04-11.2,22.24-6.71,35.9,6.08,18.54,13.89,36.48,18.26,54.65.54-1.68-.05,2.76,0,2.36,1.88-15.23,8.68-21.35,20.12-9.11,10.6,11.35,19.91,24.69,24.24,40.35,5.09,18.42-2.83,26.99-21.01,23.85-2.75-.47-5.41-1.34-8.21-.8-6.25,1.19-12.62,2.55-17.02-4.08-2.94-4.43-.8-12.73,5.59-23.65-10.41,15.34-6.08,54.52,7.52,67.16,2.6,2.42,5.71,4.21,8.3,6.63,6.86,6.4,11.53,14.17,4.32,22.61-7.6,8.9-15.2,3.06-21.72-2.93-3.71-3.41-6.09-7.93-7.05-13.13,0-1,.04-2.04.07-3.09Z"/>
    <path class="st0" d="M1114.46,1040.98c-12.51-3.03-26.27-1.84-37.17-10.01-3.88-2.92-6.07-2.59-8.38.05-9.17,10.46-22.45,17.05-27.34,31.55-13.21,8.45-27.76-1.85-41.84,4.2-41.77,17.94-84,33.99-109.89,77.31-4.13,6.91-2.09,13.72-5.86,19.47-2.41,6.8-5.76,12.86-11.94,16.71-20.79,9.32-31.59,27.6-39.54,48.44-1.67,1.36-3.44,1.56-5.29.42-14.43-43.7,20.81-53.18,50.8-71.41-22.64-3.24-36.32-9.94-35.58-30.94.34-9.49,6.95-12.55,14.4-12.06,9.79.64,24.04-6.03,24.52,13.55-5.45,6.18-11.58-1.15-18.87,1.45,7.94,7.67,13.28,4.28,18.38-2.01,11.59,2.06,11.1-11.03,17.69-15.69,13.58-9.6,26.57-19.94,43.85-24.11-16.56-3.89-29.77-11.19-26.66-29.89,2.54-15.25,15.32-19.32,29.24-17.92,3.45.35,7.16.13,10.3,1.4,15.2,6.16,27.72,7.32,34.46-12.99,3.32-10,11.69-11.81,20.5-5.54,4.03,2.86,8.55,5.33,11.76,9.02,12.16,14,21.25,8.58,31.08-3.48,9.65-11.85,22.47-19.26,37.12-22.82,3.58-3.07,10.21-3.51,10.9-.79,7.45,28.99,27.38,18.13,44.61,16.15,2.7-.31,5.44-.16,7.79-1.93,4.29-1.44,8.58-2.89,12.87-4.33,7.38-8.32,16.45-5.75,22.47-.29,17.49,15.85,35.71,18.89,56.22,8.08,8.4.04,16.81.08,25.21.11,9.57-1.51,13.38,5.17,16.6,12.73q.68,18.4-11.91,28.82c11.91,4.36,23.8,8.81,36.34,9.27,20.12.74,34.38,9.95,42.78,29.12,20.09,25.66,23.49,26.66,54.21,15.76,18.39-6.55,24.51,5.88,29.16,20.62,3.05,8.87,6.51,17.54,11.92,25.2,7.21,16.24,6.03,35.51,16.8,50.42,9.04,7.58,25.98,11.49,12.78,29.55-3,2.08-6.41,2.43-9.9,2.44,20.52,4.51,26.59,24.99,8.54,41.08-17.28,15.4-15.62,24.05-2.89,41.36,14.65,19.9-2.08,45.99-29.83,49.99-5.08.73-11.43-1.58-6.53,7.69-3.76,2.24-4.79,6.03-5.24,10.15-32.13-12.93-38.76-26.36-26.22-56.51,8-19.25,5.87-35.97-9.34-49.23-23.88-20.83-15.55-51-21.68-76.94-.63-2.65,1.48-6.2,4.3-6.74,4.04-.78,5.88,2.7,7.27,6.19,4.54,11.38,8.89,22.9,12.04,34.73,2.24,8.4,5.6,15.86,10.15,22.93-10-14.47-13.05-31.94-17.96-48.4-5.78-19.32-16.09-33.22-33.63-41.78-9.43-4.6-18.57-9.97-27.44-15.69-7.12-4.59-14.51-9.41-12.84-20.3,1.52-4.69,4.88-6.97,9.31-7.88,14.94-1.47,22.71,13.94,35.88,16.65,16.18,1.65,30.47-11.92,41.15-7.18-6.18,1.52-18.37.93-30.48,2.68-16.11-6.63-26.6-20.94-38.36-32.87-9.41-9.54-18.37-16.52-31.36-19.42-15.62-3.49-30.98-8.54-46.26-13.61-5.99-1.99-11.52-4.53-16.61-8.79-5.43-4.54-2.84-18.27-16.97-13.52-17.89,6.02-37.18,8.45-48.96,26.01-3.79,5.65-.92,12.75,1.56,18.91,2.45,6.06,5.61,11.74,8.57,17.52,18.97,37.07,12.76,58.81-23.15,81.37-3.37-.25-5.67-2.01-6.86-5.33-1.46-6.72,3.5-10.5,4.61-12.26-29.07,16.78-12.78,44.27-9.11,69.69.41,2.87.85,5.76,1.23,8.62,1.36,10.45,12.45,25.76-2.82,29.65-12.17,3.09-14.71-14.21-17.94-25.16-.41-1.38-.44-2.88-.6-4.33-.26-5.12-1.66-9.97-3.35-14.75-2.02-6.17-3.23-12.6-5.07-18.77-8.47-28.42-.89-49.37,24.55-63.49,15.95-8.86,21.47-21.92,11.28-39.43-2.57-8.32-3.12-17.08-4.96-25.58-4.1-18.89,1-34.24,16.71-45.59,5.18-3.74,14.64-6.23,11.31-15.52-3.42-9.52-11.91-8.06-19.62-5.67-15.21,7.51-30.94,7.67-46.97,3.89Z"/>
    <path class="st0" d="M827.2,1229.11c1.27-.12,2.54-.16,3.81-.12,7.32-22.92,30.41-32.12,41.25-51.97,2.23-6.09,6.66-10.09,11.72-13.48-.31,5.74-.62,11.48-1.04,19.23,20.42-9.77,31.76-27.9,44.18-44.49,15.53-20.74,30.57-41.64,55.93-50.47,13.4-4.67,26.18-4.16,39.83,2.26-48.21,3.62-71.44,42.44-100.09,73.51-14.43,15.65-29.14,30.74-48.33,40.88-30.64,16.18-37.33,38.37-27.67,86.27,3.49,17.32-3.5,24.31-18.87,26.15-22.04,2.63-27.81-1.13-29.24-22.56,8.35,10.54,18.1,13.42,28.14,8.35,8.2-4.14,3.87-12.67,3.6-19.83-10-.38-6.35,9.29-9.86,13.67-15.59-9.62-24.61-22.37-18.06-42.78,1.85.53,4,.64,4.14,1.26,2.4,10.25,6.86,22.92,17.06,20.7,9.29-2.02,5.81-16.14,5.92-25.15.11-7.13-1.54-14.28-2.42-21.43Z"/>
    <path class="st0" d="M1040.42,1094.7c1.68,13.45-16.1,38.89-31.36,43.33-60.29,17.55-95.82,68.44-137.41,111.2-7.2,6.69-6.6,14.75-5.37,23.95,1.82,13.65,1.89,27.57,2.51,41.38.42,9.34-1.99,18.32-10.5,22.11-22.49,9.99-37.23,24.55-33.91,53.09-.91-2.32-1.82-4.64-2.73-6.96-5.2,6.61-12.4,12.47-14.98,20.06-2.09,6.15,5.48,10.98,10.94,14.17,3.42,2,8.61.85,10.49,8.58-12.88,1.31-23-2.35-29.14-14.02-5.98-11.37.91-19.13,8.84-25.87,4.04-3.43,6.87-7.61,5.97-13.12-3.3-20.07,9.25-29.1,23.54-35.82,20.32-9.55,27.14-27.09,19.82-46.44-14.38-38.04,4.2-58.55,31.05-77.38,16.19-11.35,31.2-24.47,44.42-39.64,15.3-17.56,33.73-30.44,55.68-36.22,23.68-6.23,40.59-20.42,52.14-42.4Z"/>
    <path class="st0" d="M1245.05,1022.55c-3.94,3.97-7.34,8.88-11.93,11.69-8.45,5.19-16.14,11.56-26.56,0-10.25-11.38-23.68-20.11-40.21-19.48-3.22-.92-6.44-1.84-9.66-2.77,1.19-2.32,1.98-5.06,3.66-6.88,3.66-3.96,9.77-5.87,13.37-3.6,19.67,12.38,42.71,5.1,63.01,12.83,2.78,2.74,5.55,5.48,8.32,8.21Z"/>
    <path class="st0" d="M1153.48,1019.09c-22.58,28.22-43.91,2.56-69.16.01,6.53-5.81,10.27-9.14,14.02-12.47-2.72-.32-5.44-.64-8.16-.96,14.9-8.43,29.23-8.85,40.88,5.51,6.38,7.86,14.1,7.96,22.42,7.91Z"/>
    <path class="st0" d="M994.06,1597.4c6.48-5.65,1.92-14.96,7.9-27.34-.74,18.11,5.18,30.79-5.5,41.38-2.04-.45-4.07-.91-6.11-1.36-4.15-1.99-8.28-4.05-15.53-7.24,7.22,3.53,11.4,5.72,16.02,6.77-1.61,13.47-11.57,11.53-18.85,9.15-10.75-3.52-12.88-13.63-12.13-24.69.6-8.79,3.21-15.32,12.19-17.61,7.69-1.96,8.34,4.4,11.63,8.92,3.01,4.15-2.35,17.27,10.38,12.02Z"/>
    <path class="st0" d="M1049.21,1067.36c16.38-4.91,31.39-15.24,49.42-13.63,4.74.42,10.9-.64,11.73,5.94.88,6.95-5.25,6.84-9.95,7.99-17.4,4.23-34.73,8.73-52.09,13.13-5.92-4.93-1.83-9.13.89-13.43Z"/>
    <path class="st0" d="M955.96,1570.97c-2.3,21.55-21.14,17.85-33.07,20.74-8.86,2.14-17.02-7.96-16.34-20.37,1.44-1.44,3.14-1.87,5.05-1.45,6.92,4.07,14.18,9.26,15.48-5.22,3.33-15.08,10.62-20.34,23.93-10.59.87,1.25,1.12,2.61.75,4.11-.16.82-.32,1.63-.45,2.44-1.52,3.9,1.39,5.83,3.4,8.16.43.71.84,1.45,1.25,2.18Z"/>
    <path class="st0" d="M910.66,1570.81c-1.37.19-2.75.37-4.12.53-3.66-16.91,11.13-18.37,19.34-25.34,8.93-.05,17.86-.09,26.8-.14-.56,2.74-1.12,5.48-1.67,8.22-10.18-1.7-17.52,1.31-19.62,12.99-5.86,7.61-12.86,8.3-20.73,3.74Z"/>
    <path class="st0" d="M872.41,1259.55c10,1.73,9.41-8.1,13.32-13.16,10.71-13.88,21.34-27.89,38.4-42.39-4.12,17.72-17.83,22.47-22.4,33.76-5.98,11.42-7.9,24.93-16.42,35.05-4.36-2.3-6.41-8.35-12.24-8.27-.23-1.66-.45-3.33-.66-4.99Z"/>
    <path class="st0" d="M951.75,1558.18c11,1.12,21.33-1.37,32.03-9.64q-4.16,16.01-27.83,22.43l.43.12c-3.49-3.6-7.62-6.98-4.19-13.02l-.44.11Z"/>
    <path class="st0" d="M1291.79,1058.67c6.51-1.66,13.42-2.38,19.46-5.16,20.3-9.33,30.9,4.78,42.06,18.06,3.57,8.15,9.61,13.52,17.39,16.92,9.9,9.22,23.35,14.62,28.44,29.01-5.51,9.42-11.58,2.89-16.42-.19-11.06-7.05-22.33-13.84-32.84-21.81-9.17-18.52-21.99-29.37-43.43-23.77-5.31,1.39-11.42.66-16.17-2.29-6.34-3.95-4.27-7.97,1.51-10.77Z"/>
    <path class="st0" d="M1311.99,1137.15c1.46-.02,2.92-.03,4.38-.05,3.41,2.26,1.96,6.55,3.63,9.54,7.69,15.65,23.53,19.22,36.78,25.74,20.09,9.88,32.89,23.86,38.97,47.02,6.27,23.9,10.59,49.41,32.78,70.58-19.7-10.03-28.18-20.93-32.82-37.21-4.26-14.93-9.21-29.65-15.73-43.76,3.55,29.62-.12,61.07,27.33,83.01,16.02,12.81,16.24,33.51,5.71,49.4-14.61,22.05-8.69,35.21,10.79,47,3.49,2.11,6.22,5.59,9.3,8.43,1.86,6.05,6.72,11.24,4.56,18.46-1.92,6.4-6.2,10.12-12.25,8.95-6.68-1.29-12.11-6.1-8.19-13.69,2.13-4.13,3.73-7.78,2.87-11.96-.51-2.45-2.54-5.58-4.63-6.44-4.19-1.72-3.62,2.29-3.97,4.97-1.34,10.24-5.01,2.17-6.05.35-2.39-4.2,2.51-11.49-2.91-13.94-23.03-10.42-14.02-25.03-5.52-39.87,11.49-20.05,10.03-37.16-11.23-48.59-15.64-8.41-11.89-22.94-11.54-36.36,1.26-48.3-1.46-55.71-45.24-72.84-19.59-7.67-15.39-21.97-17.81-35.64-1.35-4.48-2.34-8.92.79-13.1Z"/>
    <path class="st0" d="M885.3,1272.81c-3.88-16.49,7.44-25.17,16.42-35.05,0,2.9,0,5.79.01,8.69.36,37.29,23.75,66.98,30.66,102.26,5.67,28.93,6.7,28.72-19.28,38.05-5.82,2.09-12.38,3.21-13.42,11.44-.52,3.84,2.03,8.81-3.6,10.78-6.46,6.54-14.89,11.6-15.46,22.56-8.79-12.13-1.49-23.56,2.49-34.38,1.72-4.69,6.29-7.95,1.13-12.56-1.87-1.67-5.12-2.99-7.41-2.55-6.07,1.17-6.24,7.02-6.78,11.97-.84,7.74.38,15.86-4.77,24.32-12.51-7.91-14.37-20.72-13.71-33.31.69-12.97,11.54-16.77,21.63-20.05,42.65-13.88,43.2-14.74,26.92-58.76-4.22-11.43-9.85-22.29-14.83-33.41Z"/>
    <path class="st0" d="M1311.99,1137.15c-.26,4.37-.52,8.73-.78,13.1-2.39.05-5.22-10.07-7.07.06-1.84,10.1,3.75,21.55-5.1,30.39-7.67-13.3-5.79-31.6-20.11-41.49-4.94-3.41-9.05-12.03-15.47-7.25-7.92,5.87-1.54,12.61,2.36,18.44,1.61,2.41,2.46,5.15,2.64,8.11-.26,2.11-1.12,3.9-2.56,5.39-8.74.83-18.45.12-19.53-10.59-1.46-14.62-5.64-30.42,3.85-43.93,4.36-6.2,10.22-1.95,14.72.95,11.08,7.14,22.86,13.64,32.35,22.7,5.23,4.97,10.02,2.28,14.7,4.12Z"/>
    <path class="st0" d="M1266.34,1158.24c-.85-4.23-4.38-4.88-7.44-6.42-12.9-6.48-7.44-18.77-4.07-26.07,4.44-9.61,13.49-3.5,19.13,1.46,15.74,13.84,32.79,27.42,25.07,53.48-3.79.5-7.58,1-11.37,1.5-.25-1.99-.49-3.98-.74-5.97-3-3.7.36-13.62-10.2-10.22-4.44,1.43-8.58-2.66-10.38-7.76Z"/>
    <path class="st0" d="M910.04,1474.87c-.02-7.81-1.85-16.22,7.46-21.64,17.59,20.64,18.1,52.78,41.19,70.66-4.07,5.9-9.88,7.05-15.51,8.67-11.41,3.28-17.58,2.39-13.04-13.1,4.54-15.5-3.68-29.59-7.83-43.94-3.11-10.76-8.37-1.47-12.68-.99l.41.34Z"/>
    <path class="st0" d="M909.62,1474.52c4.27,5.38-2.57,13.23,3.57,18.12,9.28,7.38,1.18,10.46-3.17,14.46-2.26,2.08-4.77,3.21-5.55-1.09-.35-1.93,1.98-5.18,1.21-6.11-4.63-5.58-6.27,1.39-8.52,3.16-13.02,10.25-25.58,14.76-38.14-.59-1.92-2.35-3.6-4.86-1.68-7.53,1.02-1.42,4.51-2.87,5.29-2.22,21.53,18.06,29.19-7.41,42.56-14.71,1.68-.92,3.25-2.08,4.86-3.13-.01-.01-.43-.36-.43-.36Z"/>
    <path class="st0" d="M975.48,1376.22q11.72,23.26,41.02,4c-5.14,15.44-11.24,28.83-23.47,31.73-3.95.94-20.63,2.95-25.95-12.52-4.37-12.71,1.67-17.02,8.6-22.94l-.2-.27Z"/>
    <path class="st0" d="M1329.76,1211.67c-.68-2.59-1.35-5.18-2.03-7.77-1.07-2.05-.63-3.74,1.11-5.12,6.75-.61,11.73,3.54,16.62,7.32,8.83,6.83,20.43,14.59,16.79,26.88-2.82,9.52-15.63,3.63-23.78,5.57.04.02.71.44.76.47-4.22-1.55-5.3-5.58-6.62-9.43-.84-6.01.54-12.38-2.85-17.92Z"/>
    <path class="st0" d="M1356.41,1291.12c-4.27-3.62-8.21-7.8-12.88-10.72-7.5-4.68-8.14-11.4-6.02-18.87,2.37-8.35,9.12-10.3,16.45-10.58,3.45-.13,9.42,1.72,7.35,4.53-8.37,11.34,5.3,25.63-5.45,35.96-.06.02.55-.32.55-.32Z"/>
    <path class="st0" d="M1390.62,1408.23c.24,3.15.49,6.3.73,9.44l.52-.22c-7.5,13.9-6.62,26.97,3.46,39.2,5.53,6.71,10.36,13.65,4.54,22.87l.38-.38c-11.81-3.28-26-5.23-24.67-22.5,1.31-16.95-5.36-37.58,15.49-47.89l-.45-.52Z"/>
    <path class="st0" d="M982.52,1446.39c-3,17.11,13.57,22.75,20.25,37.01-11.41-1.5-23.43,5.83-28.26-4.36-4.62-9.77-.17-22.19,8.01-32.65Z"/>
    <path class="st0" d="M1002.37,1352.42c9.77-3.71,9.71,5.28,11.33,10.52,1.72,5.57-2.54,9.16-6.9,11.55-10.11,5.53-20.56,6.64-31.3,1.77-.03-.04.26.33.21.28,12.77-3.61,27.82-4.47,27.03-24.52.02,0-.37.4-.37.4Z"/>
    <path class="st0" d="M1329.76,1211.67c6.02-.24,11.68,2.13,13.18,7.96,2.14,8.3-9.99,2.88-10.34,9.94-4.16-4.06-12.78-3.96-12.3-12.01.25-4.24,4.96-6.19,9.46-5.89Z"/>
    <path class="st0" d="M1328.83,1198.78c-.37,1.71-.74,3.41-1.11,5.12-3.66-2.85-6.85-7.61-12.12-2.33-2.98,2.99-5.56,10.08-10.88,2.85-2.95-4.01-.94-7.75,1.14-11.83,3.14-6.16,7.27-6.07,11.85-3.07,3.98,2.63,7.44,6.14,11.12,9.26Z"/>
    <path class="st0" d="M1391.07,1408.75c1.69-6.49-5.48-11.98-1.91-19.19,8.99,4.58,10.24,14.25,14.58,22.04-5.86,3.87-9.05-1.5-13.11-3.36,0-.01.44.51.44.51Z"/>
    <path class="st0" d="M1089.05,1390.8c-9.73,1.83-18.21,21.6-29.88,1.85-1.42-2.41-12.27-4.26-13.32,3.79-1.03,7.85-1.39,17.76,10.06,20.28,8.81,1.95,23.04,26,20.14,34.9-3.19,9.76-10.36,16.34-20.62,14.36-16.05-3.1-24.21-13.04-19.91-31.08,8.75,2.14,6.2,14.7,14.48,17.23,5.01,1.53,10.67,6.57,14.69-.76,2.94-5.35-.27-11.27-4.6-12.98-33.74-13.25-22.49-44.38-24.64-69.32-1.27-14.71,12.35-21.57,24.85-34.17-3.91,15.42-11.28,21.71-17.67,28.79-4.35,4.81-4.22,11.59-2.05,16.5,2.98,6.74,8.24.24,12.51.24,7.2.01,16.44-10.71,21.78,4.64.78,2.24,6.52-4.34,6.95-9.83.62-7.89-21.58-53.45-28.51-56.42-6.76-2.9-9.26.46-6.96,7.36,3.49,10.45-5.24,14.77-9.13,22.04,3.15-26.82-11.94-47.43-19.98-70.04-5.96-16.73-7.41-31.78,7.56-43.13,25.17-19.08,32.38-41.73,16.53-71.12-2.47-4.57-1.99-10.89-3.84-22.36-10.33,23.52-18.75,43.4-49.7,38.27,30.39-14.22,40.54-40.84,55.27-64.3,12.52-19.94,32.67-31.45,56.96-30.81,4.12.11,10.99-3.38,11.19,4.96.16,6.85-5.7,7.71-10.67,7.22-24.69-2.41-39.24,9.78-51.12,32.09-7.71,14.48-3.93,26.36,1.19,36.83,13.06,26.69,12.65,47.89-10.09,69.65-18.23,17.46-14.8,47.19,5.11,78.57,11.16-21.95,8.24-49.32,27.04-67.81,2.42,9.71,1.3,18.14-1.87,25.89-14.96,36.57.94,63.06,26.34,85.28,7.16,6.26,6.81,10.41,1.62,15.03-5.73,5.11-6.8,12.08-9.71,18.36Z"/>
    <path class="st0" d="M1135.74,1265.72c-17.72,6.27-27.82,22.71-40.84,34.93-8.84,8.3-.44,30.91,12.47,32.17,10.27,1,20.86,3.06,22.54,11.84,2.08,10.88-3.65,22.6-10.64,32.16-4.32,5.91-9.22,10.79-16.74,11.58,2.09-15.67,18.94-25.29,16.03-43.16-19.51,10.31-26.71-6.45-35.73-18.26-8.13-10.64-13.76-20.19-.36-33.43,9.64-9.52,20.62-16.59,30.88-24.69,11.8-9.31,7.42-11.41-2.51-16.37-33.32-16.65-45.72-55.84-29.99-90.85,9.04-20.11,25.39-26.95,44.75-29.47,12.79-1.67,21.97-3.19,11.99-21.73-10.89-20.25-7.55-42.68,3.65-62.93-7.82-7.13-19.46,1.4-26.78-6.54,16.99,3.5,31.91-5.34,47.74-8.77,1.05,3.67.38,7.17-1.49,10.28-14.49,24.11-19.38,48.63-3.81,74.5,2.31,3.84.77,8.38-.74,12.46-6.57,10.49-15.58,18.7-24.29,26.99-13.44,12.78-21.11,28.7-26.24,46.41-4.75,6.73-6.96,13.47-.04,20.24,8.62,10.08,18.35,18.93,27.68,28.23,3.86,4.24,2.94,9.37,2.47,14.41Z"/>
    <path class="st0" d="M896.7,1396.15c-.19-16.58,14.77-17.2,22.64-17.37,17.34-.37,13.68-9.7,10.91-19.54-6.45-22.91-13.18-45.65-23.4-67.26-6.62-14-12.84-29.22-5.12-45.53,25.16-18.76,46.18-40.81,52.07-75.12,10.14,29.43-4.02,47.32-23.3,63.33-25.39,21.08-27.15,35.49-8.17,66.79,6.22-13.33,11.37-26.75,21.34-36.93,3.74,5.02,3.85,9.84-.74,14.4-12.82,10.87-17.31,24.36-12.63,41.28,3.84,13.87,7.02,27.93,10.4,41.93,3.99,16.51,5.36,30.57-18.33,28.26-6.35-.62-13.13,3.71-19.72,5.76-1.98,2.3-3.96,2.3-5.95,0Z"/>
    <path class="st0" d="M942.94,1278.91c.25-4.8.49-9.6.74-14.4,13.37-25.33,25.98-49.86,26.04-81.11.04-22.02,23.55-26.63,41.04-36.85-1.07,10.34-8.6,10.97-12.88,14.41-10.54,8.46-17.46,18.07-16.79,32.9.91,20.01-4.06,37.43-15.96,54.52-16.53,23.74-13.05,48.17,5.56,74.46,3.1,4.38,10.5,9.03,5.29,14.16-6,5.91-11.26-1.24-15.12-6.19-11.75-15.05-19.42-31.77-17.92-51.9Z"/>
    <path class="st0" d="M896.7,1396.15c1.99,0,3.98,0,5.97-.01.51,10.85,7.49,9.49,14.71,9.27,4.53-.14,11.08-7.1,13.55,1.79,1.66,5.97.82,12.77-4.14,18.01-5.35,5.66-10.82,4.84-16.77,1.43-6.92-3.97-12.03-9.41-13.93-17.68.2-4.26.4-8.53.61-12.81Z"/>
    <path class="st0" d="M1133.27,1251.32c-12.56-5.78-25.36-11.26-31.39-25.77-4.1-7.81-4.13-15.62.04-23.41,1.98-35.8,28.86-53,50.5-74.12,3.18-2.2,6.36-2.34,9.53.04q15.51,25-6.61,42.4c-1.11.87-2.37,1.51-3.5,2.35-31.77,23.75-35.38,39.02-18.57,78.51Z"/>
    <path class="st0" d="M1401.18,1185.95c15.61-1.1,24.74,2.33,23.23,19.79-1.5,17.48,4.36,33.64,9.78,49.79,4.11,12.24,13.31,9.83,22.35,9.33,5.6-.31,13.83-3.77,14.86,6.37.93,9.16-6.57,13.34-13.15,14.17-14.22,1.8-25.99-.57-34.35-16.91-13.15-25.69-12.11-54.97-22.72-82.54Z"/>
    <path class="st0" d="M1161.96,1128.06c-3.18-.01-6.35-.02-9.53-.04.75-1.94,2.7-4.8,2.08-5.69-22.78-32.49-14.63-61.94,7.7-90.12,17.28-11.97,21.4,9.39,32.68,12.93-.75,2.17-.85,4-1.55,4.29-35.8,15.16-42.4,43.02-31.38,78.63Z"/>
    <path class="st0" d="M1025.18,1051.33c-19.07-2.71-35.76,6.38-53.04,12.12-6.46,2.15-12.28,6.55-18.23,10.22-8.66,5.33-14.36.34-19.72-5.89-3.72-4.32-8.89-9.85-4.95-15.05,4.93-6.5,12.66-3.31,19.17-.85,14.05,5.31,27.47,4.16,39.3-5.48,20.73-16.89,20.76-17.1,37.47,4.93Z"/>
    <path class="st0" d="M1291.79,1058.67c-1.78,3.02-7.58,7.63.78,8.11,7.98.46,16.13-1.78,24.16-3.11,16.14-2.66,34.21,14.02,32.96,30.57,3.52,3.81,3.5,7.72.29,11.71-4.82-18.73-18.93-26.35-35.02-26.93-19.14-.69-36.12-7.8-53.93-13.54,2.95-13.59,34.41-3.46,22.1-29.29,7.94,5.36.94,17.03,8.66,22.48Z"/>
    <path class="st0" d="M1349.98,1105.96c-.1-3.9-.19-7.81-.29-11.71,17.54-1.71,26.6,13.84,39.43,21.62,3.64,2.21,5.9,5.81,10.02,1.63,1.89,4.48,5.55,6.13,9.86,6.72-25.22,13.58-44.85,7.35-59.02-18.26Z"/>
    <path class="st0" d="M872.26,1177.03c-2.36,5.17,6.41,12.49-.51,15.31-17.98,7.32-26.29,25.59-40.74,36.66,5.58-32.06,18.56-48.42,41.25-51.97Z"/>
    <path class="st0" d="M1319.99,1146.64c-1.21-3.18-2.42-6.36-3.63-9.54-1.02-1.83-1.92-3.73-3.07-5.47-3.87-5.84-11-13.29-4.78-18.81,7.09-6.29,12.35,2.4,18.45,7.59,13.31,11.33,28.43,20.33,42.81,30.28,1.91,4.08-.7,5.2-3.62,6.13-9.76-3.56-19.14-7.76-27.14-15-2.73-2.47-6.58-6.3-10.11-.36-3.55.65-6.99,1.49-8.91,5.18Z"/>
    <path class="st0" d="M1366.27,1154.85c1.17-1.39,2.33-2.77,3.5-4.16,1.48-1.29,2.97-2.58,4.45-3.87,10.67-2.68,21.45-4.96,31.96-8.19,6.49-1.99,12.2-2.43,17.11,3.05,2.41,2.69,4.53,6.34,2.39,9.72-3.78,5.96-10.09,2.65-15.18,2.93-6.12.34-12.39-.61-18.48-1.68-5.91-1.04-9.6-3.44-12.26,6.59-2.46,9.24-12.06,5.21-18.68.79.26-3.33,3.1-3.84,5.19-5.18Z"/>
    <path class="st0" d="M1451.27,1328.25c3.54,7.12,17.24,9.92,11.48,20.3-8.03,14.48-23.04,11.85-36.32,12.4-3.53-22.11,19.06-20.37,25.08-33.07l-.24.37Z"/>
    <path class="st0" d="M1437.34,1184.58c-11.89-5.51-21.72-8.01-32.23-8.25-5.4-.12-12.88-1.52-12.74-8.1.2-8.97,8.5-5.3,12.93-4.7,12.72,1.76,32.19-7.21,32.04,21.05Z"/>
    <path class="st0" d="M880.86,1127.69c-3.18,7.17-.39,21.1-15.17,15.28-6.63-2.61-12.08-7.15-13.55-15.04-.65-3.47-1.11-7.77,3.66-8.39,6.8-.89,13.7-1.72,18.53,5.76,1.17,1.82,4.62,2.02,7.02,2.96-.01,0-.49-.57-.49-.57Z"/>
    <path class="st0" d="M1258.9,1031.83c8.25-1.53,12.99,4.43,14.78,11.47,2.41,9.47-7.11,7.12-11.09,8.45-6.5,2.17-12.21-1.16-13.39-9.22-1.07-7.23,2.05-11,9.7-10.7Z"/>
    <path class="st0" d="M1432.26,1142.06c2.64-4,4.82-8.47,8.05-11.84,2.73-2.86,6.61-5.66,10.73-1.9,3.17,2.9,2.63,6.72.23,9.48-6.79,7.82-4.49,17.47-5.52,26.46-11.21-2.94-7.87-15.55-13.49-22.2Z"/>
    <path class="st0" d="M1451.52,1327.88c-23.31,7.79-24.86,5.42-19.15-34.38,5.16,14.89,10.68,25.77,18.87,34.79.03-.04.28-.41.28-.41Z"/>
    <path class="st0" d="M1433.61,1195.09c13.68,5.18,11.76,18.89,15.68,29.01,1.56,4.04,1.07,8.66-5.02,9.14-5.69.44-8.91-1.09-8.94-8.13-.05-9.85-1.08-19.7-1.72-30.02Z"/>
    <path class="st0" d="M1366.27,1154.85c-1.73,1.73-3.47,3.46-5.2,5.19-10.73-6.19-21.45-12.39-32.18-18.58-2.45-3.29-8.32-6.17-5.76-10.45,3.61-6.04,6.54.8,9.51,2.65,11.25,6.98,22.42,14.11,33.63,21.19Z"/>
    <path class="st0" d="M1459.81,1220.3c22.58.32,28.43,5.55,23.24,21.07-1.57,4.7-4.68,3.93-7.68,1.13,9.92-9.3,9.34-15.62-4.74-17.84-3.96-.62-8.49.61-10.82-4.36Z"/>
    <path class="st0" d="M1161.59,1202.91c-3.74,9.78-12.73,16.12-15.42,26.72-3.47-13.43,2.04-23.12,10.88-31.5,1.51,1.59,3.03,3.19,4.54,4.78Z"/>
    <path class="st0" d="M990.84,1609.62c-16.36,5.28-25.61.99-25.23-22.33,11.2,7.79,19.26,13.64,24.72,22.82.03-.03.51-.49.51-.49Z"/>
    <path class="st0" d="M910.66,1570.81c6.2-5.53,14.75,3.18,20.72-3.74-1.47,5.58,3.1,13.88-4.7,16.44-9.85,3.22-12.13-6.38-16.02-12.7Z"/>
    <path class="st0" d="M952.2,1558.06c2,4.13,5.95,7.57,4.19,13.02-5.34-.38-13.13,4.8-15.18-3.33-1.79-7.07,3.31-11.36,10.99-9.69Z"/>
    <path class="st0" d="M1399.87,1479.52c2.27-9.46-4.31-14.57-9.36-20.23-10.59-11.88-10.14-29.23,1.36-41.83-1.07,14.46-1.28,27.55,12.4,37.91,11.01,8.31,3.94,17.37-4.4,24.15Z"/>
    <path class="st0" d="M1207,1110.39c3.75-18.32,9.96-35.14,26.72-46.38-20.41,30.84-14.6,60.54.8,90.44,5.68,11.01,1.04,22.67-.78,34.11-5.13,32.21-4.93,32.4,26.63,35.43,9.37.9,17.98,1.53,20.69,13.7,3.45,15.51,9.26,30.45-9.06,41.47-16.86,10.14-23.02-5.63-39.38-14.21,12.37-.75,18.74-1.27,25.12-1.48,6.58-.22,13.07-.52,13.16-9.83.06-6.98-1.68-12.93-9.39-14.82-14.54-3.56-31.55-1.88-40.96-17.43-9.15-15.11,3.18-29.3,3.71-44.26.74-20.86-5.38-39.8-10.16-59.27-.05-.21-1.13-.45-1.45-.23-.55.37-.88,1.1-1.3,1.68-8.07.55-5.94-4.33-4.35-8.92Z"/>
    <path class="st0" d="M1167.3,1350.5c12.21-7.36,26.05-16.72,23.8-32.24-1.9-13.16-20.34-2.03-28.29-11.23-.57-3.91,2.64-4.1,4.96-4.84,28.01-8.93,28.12-9.04,5.76-30.77-5.33-5.18.76-13.32-5.32-17.84-13.3,7.69-2.39,23.17-9.45,33.11-.25-.73-.45-1.21-.58-1.7-12.86-47.51,24.65-70.43,45.25-101.59,2.41-3.65,5.79-4.31,8.61-1.09,2.96,3.38.42,6.77-1.59,9.61-7.85,11.09-14.86,23.07-23.99,32.87-13.85,14.87-14.43,24.65,4.27,36.21,25.19,15.58,10.54,41.93,10,62.93-.46,16.82-15.28,26.09-33.43,26.57Z"/>
    <path class="st0" d="M1207,1110.39c1.45,2.97,2.89,5.95,4.34,8.92v44.24c-8.59-17.37-12.12-34.9-4.34-53.16Z"/>
    <path class="st0" d="M1266.34,1158.24c11.13,13.47,15.82-1.09,22.96-6.53,3.83,9.19,2.72,17.06-2.38,24.52-9.4.36-13.97-8.32-21.03-12.34.15-1.89.3-3.77.45-5.65Z"/>
    <path class="st0" d="M1131,1282.52c2.25,13.12-2.05,19.99-13.93,25.62-.46-12.75,8.3-17.05,13.93-25.62Z"/>
    <path class="st0" d="M1279.14,1146.78c-.4,3.87-1.49,6.86-6.16,5.29-4.04-1.36-7.59-3.44-7.76-8.42-.14-4.03,2.12-6.66,6.04-6.73,6.26-.1,7.55,4.56,7.88,9.86Z"/>
    <path class="st0" d="M1120.49,1143.04c-11.18,20.29-34.42,31.91-32.12,58.57-4.73-34.23,3.97-50.42,32.12-58.57Z"/>
    <path class="st0" d="M1101.93,1202.14c-.01,7.8-.03,15.61-.04,23.41-13.12-7.83-11.26-15.63.04-23.41Z"/>
    <path class="st0" d="M1157.76,1059.03c1.57-11.64,7.37-14.78,19.65-18.87-5.2,10.91-10.6,14.85-19.65,18.87Z"/>
    <path class="st0" d="M1002.49,1607.56c28.98-20.1,37.6.75,48.78,23.97,17.16,35.65,49.41,54.2,83.08,69.35,33.95,15.28,70.03,23.57,106.03,30.83,6.93,1.4,10.88,3.33,13.03,6.41,2.93,4.21,2.62,9.26,2.15,14.46-2.52,27.69-6.47,34.01-3.08,42.32,4.08,10,13.6,10.13,13.17,13.78-1.01,8.41-51.39,7.31-154.05,7.35-20.04.01-40.07-1.22-60.11-1.67-44.24-.98-66.05-.9-67.6-7.98-.89-4.06,5.25-8.53,9.17-11.65,35.41-28.16,47.94-115.84,18.5-172.48-3.4-6.49-6.77-11.49-9.07-14.69Z"/>
    <path class="st0" d="M1353.42,1596.03c-1.8,9.77-10.15,16.24-14.51,13.02-27.1-20.02-56.68-4.62-84.69-8.48-6.83-.94-14.12.27-19.98-4.05-2.4-1.77-4.02-5.57-4.46-8.65-.21-1.49,3.5-5.23,4.82-4.95,33.53,7.19,66.79-12.69,100.04-.3,7.08,2.65,17.59,3.49,18.78,13.41Z"/>
    <path class="st0" d="M1334.12,1620.55c-27.41,27.88-40.85,27.08-65.41-4.9,23.46,4.64,44.06,11.74,65.41,4.9Z"/>
    <path class="st0" d="M1323.72,1434.04c-.38,26.14,10.3,47.15,24.67,67.63,13.94,19.87,5.76,43.58-13.83,45.89-3.41.4-7.4,1.54-9.03-2.52-1.56-3.88,1.02-6.13,4.46-8.22,16.95-10.28,12.76-21.4,2.8-35.38-14.34-20.14-21.85-42.61-9.07-67.4Z"/>
    <path class="st0" d="M1316.3,1530.25c.12,1.89.49,2.98.17,3.27-7.95,7.41-14.91,18.01-27.81,12-2.75-1.28-5.16-5.59-1.86-9.05,8.59-9.02,18.83-9.04,29.5-6.22Z"/>
    <path class="st0" d="M1127.87,1393.98c2.78-12.39,9.23-16.33,15.2-19.13,34.61-16.23,70.76-20.15,108.01-12.9,5.81,1.13,10.86,3.89,10.82,11.1-.04,6.02-4.78,6.44-8.99,6.46-20.92.11-42.04-1.78-62.72.55-20.35,2.29-40.27,8.8-62.32,13.92Z"/>
    <path class="st0" d="M1042.95,1080.17c-.18-.89-1.25-6.5,2.02-10.77,1.04-1.35,2.22-2.2,3.17-2.72-1.09-.06-2.76-.31-4.58-1.24-1.07-.55-1.92-1.19-2.54-1.76-.94.88-2.45,2.14-4.51,3.14-5.04,2.47-9.35,1.49-17.34.74-3.19-.3-7.88-.65-13.69-.74-6.55,2.55-13.24,5.28-20.06,8.23-9.84,4.25-19.22,8.62-28.14,13.04-4.99,2.04-10.33,4.52-15.9,7.58-10.44,5.73-19.1,12.06-26.09,17.97-6.6,7.25-13.21,14.5-19.81,21.76l-8.36,16.57c-.81,2.71-1.56,5.65-2.2,8.8-1.67,8.25-2.1,15.74-1.98,22,3.36-2.62,8.38-6.8,14.06-12.57,2.4-2.44,4.08-4.31,5.1-5.46,14.77-16.46,18.95-19.96,28.99-31.76,3.74-4.39,8.94-10.7,14.94-18.67,3.35-4.21,7.91-9.13,13.89-13.84,8.67-6.82,17.04-10.56,23.15-12.68,7.39-.95,14.77-1.9,22.16-2.84,3.49-2.2,9.38-5.27,17.18-6.48,9.1-1.4,16.48.38,20.54,1.7Z"/>
    <polygon class="st0" points="1303.24 1117.41 1311.99 1110.82 1335.39 1127.15 1339.23 1120.68 1315.02 1100.94 1270.95 1087.83 1240.99 1074.67 1233.73 1064.01 1224 1083.87 1265.9 1099.29 1303.24 1117.41"/>
    <path class="st0" d="M1258.08,1115.11"/>
    <path class="st0" d="M1185.4,1077.96c5.28-3.91,13.05-8.77,23.15-12.29,9.59-3.34,18.07-4.36,24.27-4.59-5.75,7.78-11.51,15.55-17.26,23.33l-30.16-6.45Z"/>
  </g>
</svg>